<?xml version="1.0" encoding="iso-8859-1"?>
<!-- Generator: Adobe Illustrator 18.0.0, SVG Export Plug-In . SVG Version: 6.00 Build 0)  -->
<!DOCTYPE svg PUBLIC "-//W3C//DTD SVG 1.1//EN" "http://www.w3.org/Graphics/SVG/1.1/DTD/svg11.dtd">
<svg xmlns="http://www.w3.org/2000/svg" xmlns:xlink="http://www.w3.org/1999/xlink" version="1.1" id="Capa_1" x="0px" y="0px" viewBox="0 0 312.553 312.553" style="enable-background:new 0 0 312.553 312.553;" xml:space="preserve" width="512px" height="512px">
<g>
	<path d="M302.553,0H10C4.476,0,0,4.478,0,10v292.553c0,5.522,4.476,10,10,10h292.553c5.523,0,10-4.478,10-10V10   C312.553,4.478,308.076,0,302.553,0z M110.411,178.52h-8.579v17.756c0,5.149-4.175,9.323-9.323,9.323   c-5.149,0-9.323-4.174-9.323-9.323v-78.87c0-5.149,4.174-9.323,9.323-9.323h17.902c24.335,0,39.451,13.386,39.451,34.935   C149.862,164.917,134.746,178.52,110.411,178.52z M227.849,121.387l-30.165,46.16v27.6c0,5.149-4.174,9.323-9.323,9.323   c-5.15,0-9.323-4.174-9.323-9.323v-27.543l-30.605-46.176c-2.845-4.293-1.673-10.078,2.62-12.923   c4.291-2.848,10.076-1.672,12.923,2.62l24.323,36.698l23.941-36.638c2.816-4.309,8.594-5.521,12.904-2.704   C229.455,111.298,230.666,117.076,227.849,121.387z" fill="#FFFFFF"/>
	<path d="M110.411,126.729h-8.579v33.145h8.579c20.805,0,20.805-12.688,20.805-16.857   C131.216,138.989,131.216,126.729,110.411,126.729z" fill="#FFFFFF"/>
</g>
<g>
</g>
<g>
</g>
<g>
</g>
<g>
</g>
<g>
</g>
<g>
</g>
<g>
</g>
<g>
</g>
<g>
</g>
<g>
</g>
<g>
</g>
<g>
</g>
<g>
</g>
<g>
</g>
<g>
</g>
</svg>
